<?xml version="1.0" standalone="no"?>
<!DOCTYPE svg PUBLIC "-//W3C//DTD SVG 20010904//EN"
 "http://www.w3.org/TR/2001/REC-SVG-20010904/DTD/svg10.dtd">
<svg version="1.0" xmlns="http://www.w3.org/2000/svg"
 width="502.000000pt" height="286.000000pt" viewBox="0 0 502.000000 286.000000"
 preserveAspectRatio="xMidYMid meet">

<g transform="translate(0.000000,286.000000) scale(0.100000,-0.100000)"
fill="#000000" stroke="none">
<path d="M2023 2333 c9 -2 23 -2 30 0 6 3 -1 5 -18 5 -16 0 -22 -2 -12 -5z"/>
<path d="M1959 2198 c5 -32 6 -32 9 -6 2 18 10 28 25 31 16 3 14 5 -9 6 -29 1
-30 0 -25 -31z"/>
<path d="M1898 2213 c7 -3 16 -2 19 1 4 3 -2 6 -13 5 -11 0 -14 -3 -6 -6z"/>
<path d="M1852 2150 c0 -19 2 -27 5 -17 2 9 2 25 0 35 -3 9 -5 1 -5 -18z"/>
<path d="M1910 2110 c-9 -6 -10 -10 -3 -10 6 0 15 5 18 10 8 12 4 12 -15 0z"/>
<path d="M1850 2090 c-10 -6 -11 -10 -2 -10 19 0 15 -80 -5 -104 -18 -21 -18
-21 5 -2 17 15 22 30 22 67 0 28 5 49 13 52 8 4 7 6 -3 6 -8 0 -22 -4 -30 -9z"/>
<path d="M2319 2069 c-15 -15 -19 -28 -15 -45 3 -13 9 -35 12 -48 4 -15 -20
-113 -62 -261 -62 -218 -70 -240 -101 -268 -27 -24 -33 -38 -31 -61 5 -54 22
-57 338 -54 358 4 341 -4 388 179 22 84 16 119 -24 138 -63 28 -107 8 -192
-88 -46 -51 -70 -71 -88 -71 -13 0 -24 5 -24 10 0 6 28 108 62 227 58 203 64
218 101 254 30 31 37 44 32 61 -13 44 -29 48 -207 48 -157 0 -169 -1 -189 -21z"/>
<path d="M1776 2051 c-10 -11 -16 -29 -13 -43 l4 -23 2 24 c0 14 8 33 18 43 9
10 14 18 11 18 -3 0 -13 -9 -22 -19z"/>
<path d="M1800 1953 c-32 -13 -100 -77 -100 -95 1 -7 7 -1 16 14 16 30 70 64
76 48 2 -5 8 2 15 15 6 14 10 25 10 24 -1 0 -9 -3 -17 -6z"/>
<path d="M1801 1884 c0 -11 3 -14 6 -6 3 7 2 16 -1 19 -3 4 -6 -2 -5 -13z"/>
<path d="M1710 1837 c0 -5 8 -22 17 -37 16 -28 16 -29 -15 -65 -18 -19 -32
-42 -32 -50 0 -8 14 -30 31 -49 l30 -35 -21 -41 c-25 -49 -20 -72 23 -102 18
-12 35 -26 38 -31 3 -5 9 -7 12 -5 3 1 19 -7 36 -20 27 -19 31 -29 31 -67 0
-29 -4 -45 -12 -45 -9 0 -8 -4 2 -10 8 -5 22 -9 30 -9 10 0 11 2 3 6 -8 3 -13
24 -13 53 0 44 -4 52 -35 77 -19 15 -35 35 -36 43 0 10 -2 11 -6 2 -3 -9 -12
-8 -35 5 -46 27 -53 49 -32 94 9 22 20 39 25 39 4 0 19 -14 33 -31 14 -17 26
-27 26 -23 0 4 -12 21 -27 36 -27 28 -27 29 -10 57 9 16 17 33 17 38 0 4 -10
-8 -21 -27 l-21 -34 -29 32 c-36 40 -36 52 -3 91 32 39 38 39 54 1 7 -17 15
-29 17 -26 2 2 -3 19 -12 36 -16 31 -16 33 7 59 l23 26 -27 -24 -27 -23 -20
33 c-12 19 -21 30 -21 26z"/>
<path d="M1801 1484 c0 -11 3 -14 6 -6 3 7 2 16 -1 19 -3 4 -6 -2 -5 -13z"/>
<path d="M1761 1359 c0 -16 8 -33 22 -45 22 -19 22 -19 5 1 -9 11 -18 31 -21
45 l-4 25 -2 -26z"/>
<path d="M1900 1266 c0 -2 7 -7 16 -10 8 -3 12 -2 9 4 -6 10 -25 14 -25 6z"/>
<path d="M1853 1225 c0 -22 2 -30 4 -17 2 12 2 30 0 40 -3 9 -5 -1 -4 -23z"/>
<path d="M1961 1173 c-1 -31 1 -33 32 -32 29 2 29 2 5 6 -20 3 -28 11 -31 31
-4 24 -4 24 -6 -5z"/>
<path d="M1908 1153 c7 -3 16 -2 19 1 4 3 -2 6 -13 5 -11 0 -14 -3 -6 -6z"/>
<path d="M2018 1033 c6 -2 18 -2 25 0 6 3 1 5 -13 5 -14 0 -19 -2 -12 -5z"/>
<path d="M3055 600 c-32 -12 -41 -29 -69 -124 -14 -48 -31 -95 -37 -102 -13
-15 -35 -18 -43 -6 -8 13 42 173 60 193 27 30 8 39 -83 39 l-85 0 5 -27 c3
-14 -6 -63 -19 -107 -38 -124 -21 -165 73 -187 93 -20 164 28 192 132 16 55
21 64 47 71 16 4 32 4 36 0 9 -9 -60 -231 -78 -250 -33 -32 -3 -45 96 -40 65
3 65 3 66 33 2 54 2 54 38 48 54 -9 120 28 145 81 30 60 28 136 -2 164 -26 24
-95 30 -115 10 -8 -8 -15 -8 -26 1 -9 8 -34 12 -61 9 -41 -3 -46 -1 -52 20 -5
23 -39 53 -58 51 -5 0 -19 -4 -30 -9z m214 -199 c-7 -23 -14 -39 -16 -37 -3 2
1 23 8 45 7 23 14 39 16 37 3 -2 -1 -23 -8 -45z"/>
<path d="M1700 564 c0 -44 -48 -214 -66 -235 -8 -8 -14 -23 -14 -32 0 -15 16
-17 140 -17 127 0 141 2 152 19 12 19 12 19 36 0 27 -20 106 -27 117 -9 4 7
12 7 25 0 52 -28 139 2 140 48 1 13 4 11 14 -7 19 -35 54 -50 113 -51 41 0 58
5 82 26 17 14 31 33 31 42 1 11 6 8 16 -10 20 -37 63 -58 119 -58 74 0 115 29
115 82 0 18 -5 19 -52 14 l-53 -6 55 14 c89 23 120 91 63 136 -24 19 -38 21
-100 18 -53 -2 -79 -9 -99 -24 l-27 -20 -23 23 c-19 19 -34 23 -87 23 -75 0
-122 -25 -149 -80 -18 -34 -18 -34 -18 -8 0 15 -11 39 -24 55 -21 24 -32 28
-92 31 -90 4 -119 -11 -119 -58 0 -28 -6 -40 -30 -56 -17 -12 -34 -18 -40 -13
-19 18 -49 8 -81 -27 -19 -19 -38 -34 -43 -32 -12 5 41 183 62 206 30 33 13
42 -79 42 l-84 0 0 -36z m700 -124 c11 -11 33 -20 50 -20 23 0 30 -5 30 -19 0
-15 -10 -20 -46 -26 -59 -8 -79 8 -69 54 8 37 9 37 35 11z m-170 -52 c0 -21
-3 -29 -10 -22 -5 5 -7 19 -4 32 9 31 14 27 14 -10z"/>
</g>
</svg>
